<?xml version="1.0" encoding="UTF-8" standalone="no"?>
<!DOCTYPE svg PUBLIC "-//W3C//DTD SVG 20010904//EN" "http://www.w3.org/TR/2001/REC-SVG-20010904/DTD/svg10.dtd">
<svg version="1.0" xmlns="http://www.w3.org/2000/svg" width="1280.000000pt" height="1258.000000pt" viewBox="0 0 1280.000000 1258.000000" preserveAspectRatio="xMidYMid meet">
<g transform="translate(0.000000,1258.000000) scale(0.100000,-0.100000)" fill="#000000" stroke="none">
<path d="M604 12556 c-50 -12 -115 -33 -145 -45 -171 -74 -321 -225 -392 -396 -38 -91 -70 -248 -64 -309 31 -298 184 -525 430 -641 92 -44 170 -64 277 -71 l85 -6 948 -947 c521 -520 947 -953 947 -961 0 -8 -415 -431 -922 -939 -508 -508 -916 -921 -908 -919 8 3 373 125 810 273 l795 268 238 236 237 236 188 -185 c695 -686 1962 -1958 1962 -1970 0 -8 -1033 -1048 -2295 -2310 -2289 -2289 -2295 -2295 -2305 -2345 -33 -170 -251 -1497 -246 -1502 3 -4 354 51 779 122 l772 129 2303 2300 2302 2301 2303 -2303 c1266 -1266 2306 -2302 2310 -2302 14 0 1512 -251 1530 -256 13 -4 17 1 17 21 0 15 -57 365 -126 778 l-127 752 -2296 2303 c-1263 1267 -2297 2306 -2299 2310 -1 4 482 491 1073 1082 l1075 1075 233 -233 233 -233 809 -274 c445 -151 811 -272 814 -269 3 2 -410 420 -917 927 -507 507 -922 927 -922 932 0 6 426 436 948 956 l947 947 87 6 c110 9 183 27 275 71 246 116 399 343 430 641 6 59 -26 215 -63 307 -66 165 -219 321 -389 396 -63 28 -242 71 -295 71 -76 0 -252 -50 -341 -96 -231 -121 -374 -344 -395 -612 l-6 -87 -947 -947 c-520 -522 -950 -948 -956 -948 -5 0 -425 415 -932 922 -507 507 -924 920 -927 918 -2 -3 119 -369 270 -815 l275 -810 229 -230 c127 -127 230 -235 230 -240 0 -16 -2136 -2148 -2148 -2144 -15 6 -2099 2076 -2130 2117 l-25 33 232 233 232 232 275 809 c150 445 273 810 271 811 -2 2 -417 -411 -922 -916 -506 -506 -927 -920 -935 -920 -8 0 -441 426 -961 948 l-947 947 -6 87 c-21 279 -168 501 -411 618 -172 84 -319 104 -471 66z"/>
</g>
</svg>